<?xml version="1.0" standalone="no"?><!DOCTYPE svg PUBLIC "-//W3C//DTD SVG 1.1//EN" "http://www.w3.org/Graphics/SVG/1.1/DTD/svg11.dtd"><svg t="1719969507948" class="icon" viewBox="0 0 1024 1024" version="1.1" xmlns="http://www.w3.org/2000/svg" p-id="14625" xmlns:xlink="http://www.w3.org/1999/xlink" width="30" height="30"><path d="M512 0C229.232 0 0 229.232 0 512c0 282.768 229.232 512 512 512 282.768 0 512-229.232 512-512C1024 229.232 794.768 0 512 0z m144.688 304.928c22.304 1.68 85.728 8.368 125.152 67.04-3.44 1.68-75.456 43.584-73.728 127.376 0 100.384 85.952 134.528 90.688 135.728l0.144 0.032-0.144 0.368c-2.224 5.536-14.496 49.552-47.824 95.136l-8.208 11.328c-26.544 36.4-54.4 70.8-96.368 70.8-46.272 0-60-26.816-113.12-26.816-53.136 0-68.576 26.816-113.152 26.816-44.56 1.664-78.864-45.264-108-85.472-58.288-83.776-104.576-234.64-42.864-336.896 29.152-50.24 84.016-83.76 142.288-83.76 44.576 0 85.712 28.496 113.136 28.496 27.456 0 78.88-36.896 132-30.176z m0-160.928c3.408 38.544-12 78.768-36 107.28-24 28.48-63.408 50.272-101.136 46.928-5.152-38.56 13.712-78.784 36-103.936 24-28.48 66.848-48.592 101.12-50.272z" fill="#333333" p-id="14626"></path></svg>