<?xml version="1.0" standalone="no"?><!DOCTYPE svg PUBLIC "-//W3C//DTD SVG 1.1//EN" "http://www.w3.org/Graphics/SVG/1.1/DTD/svg11.dtd"><svg t="1719969392965" class="icon" viewBox="0 0 1024 1024" version="1.1" xmlns="http://www.w3.org/2000/svg" p-id="2159" xmlns:xlink="http://www.w3.org/1999/xlink" width="30" height="30"><path d="M984.535 316.488a513.224 513.224 0 0 0-110.92-166.001 513.249 513.249 0 0 0-166.006-110.92A513.27 513.27 0 0 0 511.795 0.614a513.28 513.28 0 0 0-195.82 38.953 513.229 513.229 0 0 0-166.001 110.92A513.244 513.244 0 0 0 39.055 316.488 513.28 513.28 0 0 0 0.102 512.312a513.28 513.28 0 0 0 38.953 195.814 513.239 513.239 0 0 0 110.92 166.001 513.244 513.244 0 0 0 166.006 110.925A513.316 513.316 0 0 0 511.795 1024c66.975 0 133.934-13.317 195.814-38.948A513.254 513.254 0 0 0 873.61 874.127a513.239 513.239 0 0 0 110.92-166 513.28 513.28 0 0 0 38.953-195.815c0-66.985-13.317-133.939-38.953-195.825z m-670.3 241.781l-0.492 0.481-26.147 24.674C269.343 600.355 244.675 611 217.534 611c-55.747 0-101.14-44.508-101.14-99.66 0-54.667 45.393-99.175 101.14-99.175 26.644 0 49.833 10.158 68.085 26.608l4.936 4.352 22.697 22.252 0.492-0.482 48.844-46.438 47.857 48.86-47.862 44.99 46.874 44.99-46.874 47.41-48.348-46.438z m309.35 251.566a102.61 102.61 0 0 1-63.16-21.775l-0.988-0.963-37.494-34.355h-0.492l-35.522 33.382-0.989 0.973a102.272 102.272 0 0 1-64.138 22.738c-55.746 0-101.14-44.508-101.14-99.174 0-25.641 9.867-48.866 26.153-66.765l0.983-1.45L475.566 511.82 346.798 380.236c-16.281-17.9-26.147-41.124-26.147-66.765 0-54.666 45.388-99.174 101.146-99.174 24.663 0 47.36 8.704 64.624 22.732l0.988 0.973 35.528 33.383 37.489-34.356 0.993-0.48a101.535 101.535 0 0 1 63.15-21.766c55.747 0 101.14 44.503 101.14 99.174 0 25.155-9.375 48.38-25.165 65.792l-0.988 1.45L569.8 511.818l52.787 53.704 1.982 1.93 73.507 76.923 1.972 0.487c15.298 17.9 25.17 40.637 25.17 65.792 0 54.671-45.394 99.18-101.632 99.18z m202.772-198.349c-27.136 0-51.81-10.65-70.062-27.581l-26.64-25.155-0.993 0.968-47.36 45.957-46.868-47.411 46.868-44.99-0.496-0.481-46.864-44.995L681.8 419.42l1.971 2.422 45.885 43.536 0.492 0.486 22.692-22.252 4.935-3.87c18.253-16.45 41.442-26.609 68.081-26.609 55.757 0 101.14 44.508 101.637 99.175 0 54.666-45.389 99.174-101.135 99.174zM647.259 337.663c6.415-6.292 9.866-14.515 9.866-23.706 0-17.904-14.797-32.9-33.546-32.9-8.878 0-16.778 2.897-22.697 8.703l-26.148 25.646-0.496 0.487 37.498 35.799-50.319 51.277-39.967-38.702L481.49 402l-50.325-50.31 39.962-34.354-29.594-29.02-0.496-0.482a34.212 34.212 0 0 0-20.726-6.774c-18.253 0-33.546 14.51-33.546 32.896 0 8.223 2.959 15.478 7.895 21.284L521.45 464.413l125.809-126.75zM520.462 560.68L393.67 689.858c-4.936 5.801-7.895 13.056-7.895 21.284 0 17.894 14.797 32.896 33.546 32.896 7.895 0 15.294-2.417 20.72-6.774l30.101-29.025-39.966-35.318 49.341-50.796 39.47 37.735 0.492 0.486 39.961-39.67 50.816 51.764-37.002 36.285-0.492 0.481 26.64 26.123a33.777 33.777 0 0 0 22.697 8.709c18.744 0 34.038-14.51 34.038-32.896 0-9.19-3.943-17.419-9.867-23.706L520.461 560.68z m305.894-81.27c-7.404 0-14.802 2.417-20.234 6.769-1.971 1.454-2.463 1.94-2.463 1.94l-25.165 24.187 25.165 25.155c5.427 4.838 13.322 8.223 22.195 8.223 18.258 0 33.552-14.992 34.048-32.896a33.362 33.362 0 0 0-33.546-33.383z m-588.097 5.807c-5.924-4.352-12.83-6.774-20.23-6.774-18.748 0-34.047 14.51-34.047 32.896 0 18.381 15.299 33.383 34.048 33.383 8.386 0 16.282-2.903 22.2-8.223l25.16-25.16-21.709-20.802a28.124 28.124 0 0 0-5.422-5.325z" fill="#D81E06" p-id="2160"></path></svg>